<?xml version="1.0"?>
<svg xmlns="http://www.w3.org/2000/svg" xmlns:xlink="http://www.w3.org/1999/xlink" xmlns:inkscape="http://www.inkscape.org/namespaces/inkscape" version="1.1" width="184.252" height="174.756" viewBox="0 0 184.252 174.756" style="background-color:transparent;">
  <defs>
    <clipPath id="clip_0">
      <path transform="matrix(1,0,0,-1,56.693,118.062999)" d="M56.69363 0C56.69363 31.31142 31.31142 56.69363 0 56.69363-31.31142 56.69363-56.69363 31.31142-56.69363 0-56.69363-31.31142-31.31142-56.69363 0-56.69363 31.31142-56.69363 56.69363-31.31142 56.69363 0ZM0 0"/>
    </clipPath>
    <clipPath id="clip_1">
      <path transform="matrix(1,0,0,-1,56.693,118.062999)" d="M127.56067 0C127.56067 31.31142 102.17847 56.69363 70.86703 56.69363 39.55562 56.69363 14.1734 31.31142 14.1734 0 14.1734-31.31142 39.55562-56.69363 70.86703-56.69363 102.17847-56.69363 127.56067-31.31142 127.56067 0ZM70.86703 0"/>
    </clipPath>
    <clipPath id="clip_2">
      <path transform="matrix(1,0,0,-1,56.693,118.062999)" d="M127.56067 0C127.56067 31.31142 102.17847 56.69363 70.86703 56.69363 39.55562 56.69363 14.1734 31.31142 14.1734 0 14.1734-31.31142 39.55562-56.69363 70.86703-56.69363 102.17847-56.69363 127.56067-31.31142 127.56067 0ZM70.86703 0"/>
    </clipPath>
    <clipPath id="clip_3">
      <path transform="matrix(1,0,0,-1,56.693,118.062999)" d="M56.69363 0C56.69363 31.31142 31.31142 56.69363 0 56.69363-31.31142 56.69363-56.69363 31.31142-56.69363 0-56.69363-31.31142-31.31142-56.69363 0-56.69363 31.31142-56.69363 56.69363-31.31142 56.69363 0ZM0 0"/>
    </clipPath>
    <clipPath id="clip_4">
      <path transform="matrix(1,0,0,-1,56.693,118.062999)" d="M56.69363 0C56.69363 31.31142 31.31142 56.69363 0 56.69363-31.31142 56.69363-56.69363 31.31142-56.69363 0-56.69363-31.31142-31.31142-56.69363 0-56.69363 31.31142-56.69363 56.69363-31.31142 56.69363 0ZM0 0"/>
    </clipPath>
    <clipPath id="clip_5">
      <path transform="matrix(1,0,0,-1,56.693,118.062999)" d="M92.12714 61.37067C92.12714 92.6821 66.74493 118.0643 35.4335 118.0643 4.12209 118.0643-21.26012 92.6821-21.26012 61.37067-21.26012 30.05925 4.12209 4.67703 35.4335 4.67703 66.74493 4.67703 92.12714 30.05925 92.12714 61.37067ZM35.4335 61.37067"/>
    </clipPath>
    <clipPath id="clip_6">
      <path transform="matrix(1,0,0,-1,56.693,118.062999)" d="M56.69363 0C56.69363 31.31142 31.31142 56.69363 0 56.69363-31.31142 56.69363-56.69363 31.31142-56.69363 0-56.69363-31.31142-31.31142-56.69363 0-56.69363 31.31142-56.69363 56.69363-31.31142 56.69363 0ZM0 0"/>
    </clipPath>
    <clipPath id="clip_7">
      <path transform="matrix(1,0,0,-1,56.693,118.062999)" d="M92.12714 61.37067C92.12714 92.6821 66.74493 118.0643 35.4335 118.0643 4.12209 118.0643-21.26012 92.6821-21.26012 61.37067-21.26012 30.05925 4.12209 4.67703 35.4335 4.67703 66.74493 4.67703 92.12714 30.05925 92.12714 61.37067ZM35.4335 61.37067"/>
    </clipPath>
  </defs>
  <path transform="matrix(1,0,0,-1,56.693,118.062999)" d="M56.69363 0C56.69363 31.31142 31.31142 56.69363 0 56.69363-31.31142 56.69363-56.69363 31.31142-56.69363 0-56.69363-31.31142-31.31142-56.69363 0-56.69363 31.31142-56.69363 56.69363-31.31142 56.69363 0ZM0 0" fill="#ffef53" fill-opacity=".8"/>
  <path transform="matrix(1,0,0,-1,56.693,118.062999)" d="M92.12714 61.37067C92.12714 92.6821 66.74493 118.0643 35.4335 118.0643 4.12209 118.0643-21.26012 92.6821-21.26012 61.37067-21.26012 30.05925 4.12209 4.67703 35.4335 4.67703 66.74493 4.67703 92.12714 30.05925 92.12714 61.37067ZM35.4335 61.37067" fill="#292e75" fill-opacity=".8"/>
  <path transform="matrix(1,0,0,-1,56.693,118.062999)" d="M127.56067 0C127.56067 31.31142 102.17847 56.69363 70.86703 56.69363 39.55562 56.69363 14.1734 31.31142 14.1734 0 14.1734-31.31142 39.55562-56.69363 70.86703-56.69363 102.17847-56.69363 127.56067-31.31142 127.56067 0ZM70.86703 0" fill="#c53632" fill-opacity=".8"/>
  <g clip-path="url(#clip_0)">
    <path transform="matrix(1,0,0,-1,56.693,118.062999)" d="M92.12714 61.37067C92.12714 92.6821 66.74493 118.0643 35.4335 118.0643 4.12209 118.0643-21.26012 92.6821-21.26012 61.37067-21.26012 30.05925 4.12209 4.67703 35.4335 4.67703 66.74493 4.67703 92.12714 30.05925 92.12714 61.37067ZM35.4335 61.37067" fill="none"/>
  </g>
  <g clip-path="url(#clip_1)">
    <path transform="matrix(1,0,0,-1,56.693,118.062999)" d="M92.12714 61.37067C92.12714 92.6821 66.74493 118.0643 35.4335 118.0643 4.12209 118.0643-21.26012 92.6821-21.26012 61.37067-21.26012 30.05925 4.12209 4.67703 35.4335 4.67703 66.74493 4.67703 92.12714 30.05925 92.12714 61.37067ZM35.4335 61.37067" fill="none"/>
  </g>
  <g clip-path="url(#clip_2)">
    <path transform="matrix(1,0,0,-1,56.693,118.062999)" d="M56.69363 0C56.69363 31.31142 31.31142 56.69363 0 56.69363-31.31142 56.69363-56.69363 31.31142-56.69363 0-56.69363-31.31142-31.31142-56.69363 0-56.69363 31.31142-56.69363 56.69363-31.31142 56.69363 0ZM0 0" fill="none"/>
  </g>
  <g clip-path="url(#clip_3)">
    <path transform="matrix(1,0,0,-1,56.693,118.062999)" d="M92.12714 61.37067C92.12714 92.6821 66.74493 118.0643 35.4335 118.0643 4.12209 118.0643-21.26012 92.6821-21.26012 61.37067-21.26012 30.05925 4.12209 4.67703 35.4335 4.67703 66.74493 4.67703 92.12714 30.05925 92.12714 61.37067ZM35.4335 61.37067" fill="#009555" fill-opacity=".8"/>
  </g>
  <g clip-path="url(#clip_4)">
    <path transform="matrix(1,0,0,-1,56.693,118.062999)" d="M127.56067 0C127.56067 31.31142 102.17847 56.69363 70.86703 56.69363 39.55562 56.69363 14.1734 31.31142 14.1734 0 14.1734-31.31142 39.55562-56.69363 70.86703-56.69363 102.17847-56.69363 127.56067-31.31142 127.56067 0ZM70.86703 0" fill="#d46f3a" fill-opacity=".8"/>
  </g>
  <g clip-path="url(#clip_5)">
    <path transform="matrix(1,0,0,-1,56.693,118.062999)" d="M127.56067 0C127.56067 31.31142 102.17847 56.69363 70.86703 56.69363 39.55562 56.69363 14.1734 31.31142 14.1734 0 14.1734-31.31142 39.55562-56.69363 70.86703-56.69363 102.17847-56.69363 127.56067-31.31142 127.56067 0ZM70.86703 0" fill="#573076" fill-opacity=".8"/>
  </g>
  <g clip-path="url(#clip_6)">
    <g clip-path="url(#clip_7)">
      <path transform="matrix(1,0,0,-1,56.693,118.062999)" d="M127.56067 0C127.56067 31.31142 102.17847 56.69363 70.86703 56.69363 39.55562 56.69363 14.1734 31.31142 14.1734 0 14.1734-31.31142 39.55562-56.69363 70.86703-56.69363 102.17847-56.69363 127.56067-31.31142 127.56067 0ZM70.86703 0" fill="#646464" fill-opacity=".8"/>
    </g>
  </g>
</svg>
